<svg width="97" height="96" fill="none"><rect width="96" height="96" x="0.5" fill="rgba(23,23,23,0.08)" rx="48"></rect><g fill="rgba(23,23,23,0.45)" clip-path="url(#a)"><path d="M70.122 26.378a1.289 1.289 0 0 0-1.823 0l-3.755 3.754a3.872 3.872 0 0 0-.728-.262l-11.668-2.883a3.887 3.887 0 0 0-3.673 1.018l-20.844 20.81a3.872 3.872 0 0 0 0 5.47l14.584 14.584a3.872 3.872 0 0 0 5.47 0l20.81-20.845a3.886 3.886 0 0 0 1.017-3.672L66.63 32.684a3.89 3.89 0 0 0-.262-.729l3.754-3.754a1.29 1.29 0 0 0 0-1.823Zm-3.111 18.6c.11.436-.02.905-.339 1.223l-20.81 20.845a1.29 1.29 0 0 1-1.824 0L29.454 52.461a1.29 1.29 0 0 1 0-1.823l20.845-20.81a1.296 1.296 0 0 1 1.224-.34l10.96 2.706-3.105 3.105a3.874 3.874 0 0 0-4.401.754 3.872 3.872 0 0 0 0 5.47 3.855 3.855 0 0 0 2.735 1.13c.99 0 1.98-.376 2.734-1.13a3.873 3.873 0 0 0 .755-4.401l3.104-3.105 2.706 10.96ZM58.623 39.7a1.29 1.29 0 0 1-1.823 0 1.29 1.29 0 0 1 .912-2.2 1.29 1.29 0 0 1 .912 2.2Z"></path><path d="M47.685 41.523a3.872 3.872 0 0 0-5.47 0 3.872 3.872 0 0 0 0 5.47 3.872 3.872 0 0 0 5.47 0 3.872 3.872 0 0 0 0-5.47Zm-1.823 3.647a1.29 1.29 0 0 1-1.823 0 1.29 1.29 0 0 1 0-1.824 1.29 1.29 0 0 1 1.823 0 1.29 1.29 0 0 1 0 1.824Zm3.646 9.115a3.865 3.865 0 0 0-5.47 0 3.872 3.872 0 0 0 0 5.47 3.865 3.865 0 0 0 5.47 0 3.872 3.872 0 0 0 0-5.47Zm-1.823 3.646a1.288 1.288 0 1 1-1.823-1.82 1.288 1.288 0 0 1 1.823 1.82Zm7.662-8.346a1.29 1.29 0 0 0-1.424-1.139L37.516 50.27a1.29 1.29 0 0 0 .284 2.563l16.408-1.823a1.29 1.29 0 0 0 1.139-1.424Z"></path></g><defs><clipPath id="a"><path fill="#fff" d="M26.5 26h44v44h-44z"></path></clipPath></defs></svg>