<svg xmlns="http://www.w3.org/2000/svg" width="40" height="40" viewBox="0 0 40 40" fill="none"><g clip-path="url(#a)"><rect x=".5" y=".5" width="39" height="39" rx="7.5" fill="#fff"/><rect x=".5" y=".5" width="39" height="39" rx="7.5" stroke="#EAEAEA"/><path d="M30.75 13.002H10.818a1.099 1.099 0 0 1-1.099-1.099.5.5 0 0 1 .484-.503H28.08a.5.5 0 0 0 .5-.5V9.1a1.098 1.098 0 0 0-1.195-1.096l-18.1 1.602A2.499 2.499 0 0 0 7 12.105v17.396A2.499 2.499 0 0 0 9.499 32h21.25a2.499 2.499 0 0 0 2.499-2.499v-13.99a2.5 2.5 0 0 0-2.499-2.5" fill="#EE4D2D"/><path d="M24.59 26.083a3.479 3.479 0 0 1-2.162 2.835 5.446 5.446 0 0 1-2.307.394 7.467 7.467 0 0 1-3.142-.807 7.818 7.818 0 0 1-1.26-.862c-.09-.074-.134-.141-.047-.26l.509-.743a.203.203 0 0 1 .244-.084c.058.022.1.071.15.11l.083.064a6.088 6.088 0 0 0 3.476 1.33c1.689-.023 2.912-.776 3.13-1.923.24-1.282-.781-2.384-2.752-2.995a23.95 23.95 0 0 1-2.492-.99c-1.373-.801-2.014-1.849-1.922-3.143.137-1.791 1.81-3.133 3.93-3.14a7.189 7.189 0 0 1 2.79.57c.381.166.746.363 1.093.59a.213.213 0 0 1 .115.235.216.216 0 0 1-.038.085c-.083.138-.32.529-.432.689-.074.109-.164.125-.295.042a5.875 5.875 0 0 0-3.204-.99c-1.448.029-2.54.884-2.61 2.056-.02 1.058.79 1.827 2.511 2.416 3.55 1.134 4.895 2.464 4.639 4.553" fill="#fff"/></g><defs><clipPath id="a"><path fill="#fff" d="M0 0h40v40H0z"/></clipPath></defs></svg>