<svg xmlns="http://www.w3.org/2000/svg" width="40" height="40" viewBox="0 0 40 40" fill="none"><g clip-path="url(#a)"><path fill-rule="evenodd" clip-rule="evenodd" d="M37.297 0H2.703A2.71 2.71 0 0 0 0 2.703v34.594A2.71 2.71 0 0 0 2.703 40h34.594A2.71 2.71 0 0 0 40 37.297V2.703A2.71 2.71 0 0 0 37.297 0Z" fill="#A50064"/><path d="M27.675 18.784a5.738 5.738 0 0 0 5.744-5.743 5.738 5.738 0 0 0-5.744-5.744 5.738 5.738 0 0 0-5.743 5.744 5.738 5.738 0 0 0 5.743 5.743Zm0-8.19a2.445 2.445 0 1 1 .002 4.891 2.445 2.445 0 0 1-.002-4.89Zm0 10.676a5.738 5.738 0 0 0-5.743 5.744 5.738 5.738 0 0 0 5.743 5.743 5.738 5.738 0 0 0 5.744-5.743 5.738 5.738 0 0 0-5.744-5.744Zm0 8.19a2.445 2.445 0 1 1-.001-4.89 2.445 2.445 0 0 1 .001 4.89Zm-11.702-8.19a4.27 4.27 0 0 0-2.581.865 4.297 4.297 0 0 0-2.581-.865A4.314 4.314 0 0 0 6.5 25.581v7.19h3.297v-7.23c0-.54.433-.973.973-.973s.973.432.973.973v7.216h3.297v-7.216a.97.97 0 0 1 .974-.973c.54 0 .973.432.973.973v7.216h3.283v-7.19a4.3 4.3 0 0 0-4.297-4.297Zm0-13.973a4.27 4.27 0 0 0-2.581.865 4.317 4.317 0 0 0-6.905 3.446v7.176h3.297v-7.216c0-.54.432-.973.973-.973.54 0 .973.432.973.973v7.216h3.297v-7.216c0-.54.432-.973.973-.973.54 0 .973.432.973.973v7.216h3.297v-7.176a4.302 4.302 0 0 0-4.297-4.31Z" fill="#fff"/></g><defs><clipPath id="a"><rect width="40" height="40" rx="10" fill="#fff"/></clipPath></defs></svg>