<svg xmlns="http://www.w3.org/2000/svg" width="40" height="40" viewBox="0 0 40 40" fill="none"><rect x=".5" y=".5" width="39" height="39" rx="7.5" stroke="#D4D4D4"/><path d="M12.553 9.6a.995.995 0 0 0 .094-1.047.994.994 0 0 0-.894-.553H5.002v1.948h4.853l-4.63 6.174a.995.995 0 0 0-.094 1.047c.17.341.513.553.894.553h6.751v-1.948H7.922L12.553 9.6Zm17.64.342a3.894 3.894 0 0 0-3.89 3.89 3.894 3.894 0 0 0 3.89 3.89 3.894 3.894 0 0 0 3.89-3.89 3.894 3.894 0 0 0-3.89-3.89Zm0 5.832a1.942 1.942 0 0 1 0-3.882 1.942 1.942 0 0 1 0 3.883Z" fill="#0033C9"/><path d="M8.89 20.642A3.894 3.894 0 0 0 5 24.532v6.801h1.948v-3.437a3.853 3.853 0 0 0 1.942.524 3.894 3.894 0 0 0 3.89-3.89 3.894 3.894 0 0 0-3.89-3.89v.002Zm0 5.83c-1.07 0-1.942-.87-1.942-1.94a1.942 1.942 0 1 1 1.942 1.94Zm19.267-5.828-2.071 4.834-1.967-4.834h-2.104l2.992 7.35-1.43 3.34h2.118l4.582-10.69h-2.12Z" fill="#00CF6A"/><path d="M21.275 15.772v-5.83h-1.95v.711c-.602-.44-1.33-.7-2.119-.7-2.044 0-3.703 1.74-3.703 3.884 0 2.145 1.659 3.885 3.703 3.885.957 0 1.826-.384 2.484-1.009a2.225 2.225 0 0 0 1.865 1.01h.69v-1.947h-.97v-.004Zm-3.886.002a1.937 1.937 0 1 1 0-3.873 1.937 1.937 0 0 1 0 3.873Z" fill="#0033C9"/><path d="M21.275 26.474v-5.83h-1.95v.71a3.58 3.58 0 0 0-2.119-.7c-2.044 0-3.703 1.74-3.703 3.885 0 2.145 1.659 3.885 3.703 3.885a3.59 3.59 0 0 0 2.484-1.01 2.225 2.225 0 0 0 1.865 1.011h.69v-1.947h-.97v-.004Zm-3.886 0a1.937 1.937 0 1 1 0-3.873 1.937 1.937 0 0 1 0 3.873Z" fill="#00CF6A"/><path d="M24.935 15.772V8h-1.95v7.489c0 1.233.999 2.233 2.232 2.233h.697v-1.95h-.979Z" fill="#0033C9"/></svg>