<svg xmlns="http://www.w3.org/2000/svg" width="40" height="40" viewBox="0 0 40 40" fill="none"><g clip-path="url(#a)"><rect x=".5" y=".5" width="39" height="39" rx="7.5" fill="#fff"/><rect x=".5" y=".5" width="39" height="39" rx="7.5" stroke="#EAEAEA"/><path fill-rule="evenodd" clip-rule="evenodd" d="M22.248 15.818 19.966 18.1l-.113.112-1.266 1.267-1.153 1.154-.112.113-1.07 1.068-.111.113a4.718 4.718 0 0 1-1.636 1.063c-.444.172-.91.272-1.38.302-.289.02-.58.012-.867-.024a4.656 4.656 0 0 1-1.783-.594c-.238-.137-.482-.28-.685-.481h-.003l-4.376-4.377a1.565 1.565 0 0 1-.375-1.39l.027-.105a1.623 1.623 0 0 1 .4-.67l.075-.073 4.425-4.427h.001l2.68-2.682a1.596 1.596 0 0 1 2.178-.077l7.426 7.426Z" fill="#005AAA"/><path fill-rule="evenodd" clip-rule="evenodd" d="m9.744 22.15.042.041c.203.2.447.346.688.483.555.322 1.162.52 1.783.594.287.034.579.042.867.024a4.64 4.64 0 0 0 1.965-.572c.376-.209.73-.472 1.051-.792l.112-.111 1.069-1.07.54-.542 1.266-1.265.725-.727.113-.112 4.598-4.595 1.895-2.054.113-.112a1.483 1.483 0 0 1 2.096 0l1.038 1.038.033.034a1.703 1.703 0 0 0-1.27.484l-3.513 3.455-.036.042-6.114 6.015-.008-.007-2.252 2.212-.151.159c-.177.172-.548.5-1.044.734a3.14 3.14 0 0 1-.68.231 2.657 2.657 0 0 1-.406.05h-.102c-.358 0-.709-.08-1.046-.234l-1.058-1.056-.432-.433-1.981-2.004.09.092.01-.002Zm25.586-2.055-5.09 5.168-5.229 5.308a4.486 4.486 0 0 1-.547.471c-.025.018-.05.037-.077.055l-.009.007A4.791 4.791 0 0 1 21.58 32a4.803 4.803 0 0 1-3.323-1.328l-.119-.105-.9-.899-2.527-2.528-.96-.96c.137.022.276.031.415.031h.116a3.205 3.205 0 0 0 1.257-.321 4.384 4.384 0 0 0 1.318-.982l1.944-1.909.008.009 6.68-6.574.037-.042 3.245-3.194a1.282 1.282 0 0 1 1.616-.142l.77.768 4.173 4.173a1.486 1.486 0 0 1 0 2.098Z" fill="#ED1C24"/><path d="m21.56 16.505-.43.427-.751-.756a.304.304 0 0 1 0-.428.304.304 0 0 1 .429 0l.75.755.002.002Zm-1.267 1.267-.43.426-2.361-2.38a3.273 3.273 0 0 0-3.344-.81.302.302 0 1 1-.185-.575 3.868 3.868 0 0 1 3.958.959l2.36 2.38h.002Zm-2.533 2.533-.429.429-2.372-2.391a.306.306 0 0 1 0-.429.304.304 0 0 1 .429.002l2.37 2.389h.002Zm1.266-1.266-.43.428-2.366-2.387a1.49 1.49 0 0 0-2.104-.009 1.49 1.49 0 0 0-.007 2.104l1.525 1.539a.304.304 0 0 1 0 .429.304.304 0 0 1-.429-.002l-1.526-1.538a2.097 2.097 0 0 1 .012-2.962 2.097 2.097 0 0 1 2.96.012l2.365 2.385v.001ZM15.1 22.71l-.014.008c-.186.1-.374.19-.57.265l-2.098-2.117a3.889 3.889 0 0 1-.448-4.935.303.303 0 0 1 .5.343 3.28 3.28 0 0 0 .378 4.163l2.253 2.271-.001.002Zm4.101-8.148a.308.308 0 0 1-.43-.004 5.078 5.078 0 0 0-7.17-.029 5.078 5.078 0 0 0-.028 7.17l1.542 1.556a.15.15 0 0 1 .027.035h-.022c-.281.02-.565.012-.843-.021l-1.133-1.143a5.682 5.682 0 0 1 .03-8.027 5.682 5.682 0 0 1 8.027.031l.005.005a.301.301 0 0 1-.005.427Z" fill="#009EDB"/></g><defs><clipPath id="a"><path fill="#fff" d="M0 0h40v40H0z"/></clipPath></defs></svg>